<svg xmlns="http://www.w3.org/2000/svg" xmlns:avocode="https://avocode.com/" xmlns:xlink="http://www.w3.org/1999/xlink" id="SVGDoc" width="236" height="236" version="1.1" viewBox="0 0 236 236"><desc>Generated with Avocode.</desc><g><g><title>Shape</title><path fill="#676cdb" fill-opacity="1" d="M164.49989,92.99779c-20.52864,0 0.0135,0 -71.49994,0c0,24.8394 0,52.53983 0,71.49982c0,39.48784 32.01164,71.49982 71.49994,71.49982c39.48841,0 71.50005,-32.01199 71.50005,-71.49982c0,-39.48879 -32.01164,-71.49982 -71.50005,-71.49982z"/></g><g><title>Shape</title><path fill="#ff8059" fill-opacity="1" d="M71.49993,142.99798c20.52864,0 -0.0135,0 71.49994,0c0,-24.84035 0,-52.54078 0,-71.49982c0,-39.48975 -32.01164,-71.50078 -71.49994,-71.50078c-39.48841,0 -71.50005,32.01103 -71.50005,71.50078c0,39.48784 32.01164,71.49982 71.50005,71.49982z"/></g></g></svg>